<mxfile host="app.diagrams.net" agent="Mozilla/5.0 (Windows NT 10.0; Win64; x64) AppleWebKit/537.36 (KHTML, like Gecko) Chrome/134.0.0.0 Safari/537.36" version="26.1.1">
  <diagram name="Page-1" id="t4F0bjw1UXLZFzxonrc5">
    <mxGraphModel dx="6047" dy="2740" grid="1" gridSize="10" guides="1" tooltips="1" connect="1" arrows="1" fold="1" page="1" pageScale="1" pageWidth="850" pageHeight="1100" math="0" shadow="0">
      <root>
        <mxCell id="0" />
        <mxCell id="1" parent="0" />
        <mxCell id="wwGiFJIhEPc0UXbHz_NO-40" value="" style="rounded=0;whiteSpace=wrap;html=1;fontStyle=0" vertex="1" parent="1">
          <mxGeometry x="-1810" y="-350" width="590" height="710" as="geometry" />
        </mxCell>
        <mxCell id="wwGiFJIhEPc0UXbHz_NO-26" value="" style="edgeStyle=orthogonalEdgeStyle;rounded=0;orthogonalLoop=1;jettySize=auto;html=1;fontStyle=0" edge="1" parent="1" source="hr_C6YJtpPprGCPxRi_A-4" target="hr_C6YJtpPprGCPxRi_A-6">
          <mxGeometry relative="1" as="geometry">
            <mxPoint x="-2080" y="23" as="targetPoint" />
            <Array as="points">
              <mxPoint x="-1910" y="23" />
              <mxPoint x="-1910" y="23" />
            </Array>
          </mxGeometry>
        </mxCell>
        <mxCell id="wwGiFJIhEPc0UXbHz_NO-28" value="" style="edgeStyle=orthogonalEdgeStyle;rounded=0;orthogonalLoop=1;jettySize=auto;html=1;fontStyle=0" edge="1" parent="1" target="hr_C6YJtpPprGCPxRi_A-4">
          <mxGeometry relative="1" as="geometry">
            <mxPoint x="-2460" y="190" as="sourcePoint" />
          </mxGeometry>
        </mxCell>
        <mxCell id="hr_C6YJtpPprGCPxRi_A-4" value="" style="shape=image;imageAspect=0;aspect=fixed;verticalLabelPosition=bottom;verticalAlign=top;image=data:image/webp,UklGRhoWAABXRUJQVlA4TA4WAAAvIIFIEPX4nbbfdhr5/zobQoWECgkVEiokVKhQoUKFZG9Chw4dKuyQsENCh4T992ivvc77tec8u+haVg2qngPVdBUl3GbaGPnNob00J9lWl3rYLjHQp2p3FWCot6uWXAyGPkjTvOzi8EYYaiRJkuRkw9h7HSYsqLbt1o0KAwsLxXrmfaGgoKChoaCgoNnk011s2y40GobDYT8h3E8Iw2E4DMMwHA7Dg2E4DA8eDA9+dsOCbSdo9ASlMUWk3W0ICITP6DdDt7feo0n06pPxSaVtWOxpeY5sX5lVya3u/Lrmb6KwicKdKNwxesfo3cbuqLba3b313/cfz3VmDu+uvXgV3njrXc1gryHFt5nMds6ta+EmqmP3T3irutrqTHP2h3BF4l3dUMxpcczlNzG2w5Db/9xNePMl7/K7uXtniXd1oYjZlPhlVnmdLz5Z0a3fm58Nt3PDy5S9vtvs96p4azu7vk/C6dTAux5DtGasvEc/p/rU3gdnK+GCgZ7dMN9rl9Rzmpy6rHVXQoMyn1vVKoWiGaH6yXwIEAbeo03x72MaRU/C4wct0DGYDRnralMoGhPaC38A++dgvk+haE/oz68AjETPfmTr3/ZTgkFovzoGFoPZOFclQ0EKVOemAMVQzDUVcRvWpijhtTMgkaS5b4yKz6NauFthI7+RX8vdyK3lVrJr+w27WY52XlZVfELG9B8BiLXcdTVG6nsLd5SzKyPbhqUhKSkMcolkIHBscT36pt/slLtS32rMxhpwSGZTzRhpvN1GM7WU5AYI+reBn08cGyVJlXK72ehKYzWm9i/A8CK7KsZIKuba9LYhIUGIPB/4AeVj+NnPF46NkqSYSGJn98C2Zellei+gkrfSW+fo3YwMyuiO7MrwljL1q7otZaN+kcuznSUZBNNaXoEID7rGiMebXztIChTebekbhTU6KItHa0z3ATwqJtGfTGPM5X5qKUF857YVbr5Tnfb+pSjBmP4sKHirq12+FM2laiO1JZGQlG0NNpIQtxpV0cDl8hs4kIxp3Rgx/vzGsNShU/QhdPqREbzh9UdQ/CgsGCNWOsvYkhydohuhfNIWvOmFFRCohZsQy5n8RqtCpWhJqLQisUDhJh4Fv75x2RiRuBu7hIi1rfFGCGe7DSN088uvgo1Er1d+XUVy5DKzUmfya8xen74UCfR3Ai1ztY1A6CTBeaHtQGxeYP9EIGDaD4IrVKwK5EV1ejDxh4ITmJuuCnxLVgMqaBzzsxkzXfeHghWoTxvDz3UcSHUTN5sxm2V/KHiB8qYx3FyPgoe0PIzhDRVupAR/KJiBtdf8+fFR0OLIXBXDXX5Pb6n4QoENVL5vcWdJZlXeBAkDPZ8b3F8PO5hgTIQCHIhxznITNxoBkrrWee98KbXEeldw39Re4s2X9Z2gIJm9XxpOauZaxxcCIND5mJNoXn4ZDAzR0jKcv09rJeo2EJt3zTZn5rSG0hIE3K1y3nJ+o06hAkGsR5zZU72rP+aN4WMbWan4qXAQK3/nzaF53XHIzxaXPDAu5uc61Fws5bzV/NoclQ0UrrkyZzZ9FDRvTJPKBg5X0xg+F6yzpj20RGUDiKvXNkE6Oc93j4UNOhtMXDt8uTWv6VUNXxwdGhtUXB2+KMxdHfGfKg9MboWIAzpXaXBlWFVDSfXLFtftZa4QHkD3v1xZ1vpSu3IxV7nPNJnxAxZ9kyvTXu5oplfh0RsYk7Yw4wct+i95rmvWG1rp5TZ47qua2kJjg5CrVeXJuY03GuGh4fnf0fM8pK7X4sm7hzoL7qaVFDwPq4taRl9R/hHXWV8Y2CDXSU3qWI7bPCDeAa9r8aB9rEUMfZ77+dLzELsveXKw/0YDrPLcTdPzMLsmTx6uatAuwvDI7Z6H2vHI8uaBcsm9bXjKfTHciCsNw8GjWJJ/xcFkyhXvCPehUjYcPK+UYtlw6J06nofcdXY4snJZabtHnj+EOc/D7uZ4/lkpbD+5UrgJDvQ8D73rcaBwEyvKsGCELxga1zML+tDKlTgMEFfKupDerBsBptDhMetvNIlxzfPh4Nb0iHD2kv3x/t3zYeH+bpi4nFWAvhFgCiUe01df9jPtuncMj0O9bVSXBVe6hp8prHhMd0Xxe8zHng8X97FR+5YXTMWxWepABKe6MLjEzNrWC6nIrgr7Y00tgeRj1a7Nztue1H4J2Gm2AHnnsIKqnWXn7r8kosb+1s/BAxdjmkxAhqBTLMi3DAs1if1+sD/S7wHymAhj4d3erM2Bavc9O3/XpGGD+Ym+rsQOHLYhGAf77tfbs2e2ENA5pWLqa2YGb0iroARP9HKIuTAZSt5ztzB2Wglhj9QUbswmOmiog+FGsCVvCb7rmYpat2mUFHSGYmF/nEkOFrgY02GfYBuH1Unw3PQWOoVIcuw8PlMSS2YFGI+V0UBSb23hUy8aWyQdpW5aRSRTzKRW6+hAYRsK44Gg3gzHpYvgcJjMeO4PC+gUFparzGyekoDMqkB2dIjZcERQi2GQeJd0mIIZLxnvhGRAp89hTkIbkioD5rIkmwJCTZDrQLBNQj74nvgqXXffS8hE+AqdOin1kpXP1WNhjGz9mZ/kCSA+xosmwXbwhCJ1OUySiYznZlJBoTthZvQrYf3T6B3MY4IDAw4HYI+82rWQAHTU5JweeKnpDQM6VdhnHtqi+qh5nvNgsCXh7UBQe5nAeqDS4cJ48NxkGAnodDk9L1k4rQMBh3jVI3zjQ3ahxmGn4bl3MxlApyoSuULqYDYYZhMbMHwCnpNsBZhBx5WqYiAStarMNZiZ/QeZldxmFx0MbCnyDhDU5hxnic/h1o0gWmR2Tgy7TCwI9VvO5M5vwOARp4iyjP2W/3F3F1euB8KNZTB2vEkXdBGTuSVUx8TRiBYC6mkRCLbJkA0i2etifE64azDD5RwuRuhkNrs1DwSQW93Mj7ASOwCErvs3A5Hl4+ErdE7s83vfPuMtMjtMk569EnEurrQNA48Fxk2oGmiEU4dbY0Be7X1xXYHDM8IVoYOO+ZGtWmvXBA8nTCl+RUD44tCvBJ5t8YAsEqeB0McJuyn7jKPI7BBvEck5FjpgWZoIVgOG2yF+QV6tmBkEORpdh7mMZReZHSZg2j4jBDd0Mplrsl4PS+gCTv2smCGLxDmCRAZIcbc3WEVmh6d/IH05C4LoS3p5yExdIkEX7Kv9l7zawSJRISDL3S/7i8y+S04A6fc/FY00kTC/k4dyXudWgu1x631fkViuJtf5lJu9C3Ted//+EemL8Bk6uVK8qXEqEMZ2GLbwBYHCcgRk9/XjV24eHWPpu//EEom3o+Cr+5UogpnLFS4M0cpMW+l1gK/26oigvh1Opde3UZSb5SscgHsk9ejK99Mr+JL5rTzjwgcsZNfQBb46aWNPeldRdOWmzZFiIP17cv53OsyusfABFwp3wrDbkQS9OmkicyG9upah3HxmSX8DSnUtKtqYmD2uxqJMIa0TUDisFAh5tetB+o2zlZtEyBJffjnoMLN9lgNpkQyrqag+3jknl+0Pb4N9RisSK3MLPqnrJhzL+/I7LBsG0iJx4P9ZSG/TBl5H005i7uDtHqVILPm+OZWba0QlizQcsPB/HGCWpJOCLnBx5clX0nr7dtj5G8k2GqQ/C8ep3LR/O5KZeocRU4MiesYs6XPEa2BtEW5vEezibBfkf/X9p9L7IuFVbnolI7kpXTKCJ+ZZyK5IPEpRflh7M9xaJEYcEGTb2yDSOL0gkEDH2GT8R9mWiw4L80xkVpmF4S2awGE2WN/PmN3ZPiLYBRSWDVJhuSqksETGJuoUSLazLNxjYt3oqIJy+HTDg49w9PxTgp23OslXJB4i6ER8LjORoW7cmiVtmuCYdea42Mx/jbr4xZ6vgZWffW11gWDnr04agy1BbciUpW2E9lYzx/x5/I412p/RsLmxw1OisPHtXkwlTIbr4SnBzmBLgU9heb90NWFdJWXTEbk1Fs4YSIuDX/pSKwSteb5RivHiea9E8LO/N/WQYGdXJxWBKBIHGQcs3BNqjWR2NYCLK8VAKF6930LEratiZoPGvjF9jATBoz7skArLPBDiQKCxy8IcA/lNsJAgOoCoIbMzSeLdgfN+7T/LkfFAZd8vwIeIMa066b1PPXEg4Oiw8B1jXgcMNYzpauH3CGEhBeioYyQtfr1PJRTDVQW3bpFXu54hvgoKoJvrMjL/8ge6/M6h5dVE8LK+tjA0wgD8929HtCvdDF+T7dB7tz1pGwA0RGT4FN+MZo/lO3zq/b9ntvPwXamTDW8HGjvhd5LEk7YhQJOFFN+oSMuTQ0mnh+D1gJF86pU+3HuPKnH8RBSJQUCbhRl67016ye8OTyeC5/9Gpp6XcDFGbgZLxLFPtKUBAmUWVkVqmiqx00PwIlIvQNi6mt7wF4mBQFwRqXMq3AT7nboIXoKF2Bhx4QtSYakQmr+xcBPU/puqhvnUjDaCl3A5n1S9aAeGKkbpMzWm+or27DCHEkoPwUuanlwpZOhiFKuiXtAebeSIS6XPEFLwkvd3px8cJuEPtO0UndKo1rg7OTd9dFoIXsHFjKVtExnZ6LNwl789yTfq4HAIKIJXoEFJm3x8w9+2JC1PjpoUDQQvoBHxS6gj25fRo1m/wwSMB5/gBTbqLHT4tVCl9iTqBS+okUiYmijeZsemik694AUiONPMkkMf8z46Y16qOmIhQxG8AMdLBvoU5O8EA4UNNXB4myJ4QY4dBvJ3gloZx2x2rLngJaNgEmBEDKxT22wpb3Hj8IebIFHwklIwCS7KDOxR0GWXkYMneDkcD5a6oQssNlnaFGqTG2ZtpULBSyWoeR5k5NYYaFMwejejtqrADfxgAIoZiuAFPRoMtCioMpBdkw/8yC94SWksAxz2WYKoLMhQt/3FL3hJaiwDKkReyJ2eiLDg5fDiW+pWSp72qOv0QoRF4jlMwNOfKIIXN64sdZsKAnRiEYlI1rmF+1+PZ0oVIn7BSwDU7AwGtIxojy3Byzh3ensMDqwlqh19gpdmAEdAXWcgf0Mkl8lzX2XDNWhaaoM1UvACZKdTEYe7kPxa6M8UF7+4TmYY5+xkKMJPnuAVEthh4Pfcapa2yP/50x7r3AR8m4MnFaJWBxRoqWZ5zFHjzY0ksRReOx5uXZ36pwe1rR/AUdTNsZDgUAgeb69TCE8TwJgDEyw7nVS9/JUFg4IQ7ETmemZ1EX3nyLvWE1BUFvBXN+0KIEH+/ZDnCwvPTsvqpkMWUpIAI/0LCxi0rLC8a6SNDMg+B94Ljaq816R2pgIttGk08UJ6VwawvlDb7Ia/4dZOeO/KzIZb/E3/WuECTZr+RTUOCTVEXujSeDSznTkEsBDZKW5+zC+hDm8JFShtwC7yCERmJVSg9BEIkYdo8huhQlb6EI3IY1itUNnp8hhW9J1h960bHtDlQb5oTsJjRlIqa4GCykdBxR4mzmzjgKTKWpig8mFiscfR70iCwwd/oG6n6EBiUfk4OrtDA3YDWzn4ll5ZW2o0AdJOZYcGgl1ifCMN9JxKEqB2CrvEEO1UZWQb5JhhQZ9OVeZZ2AwR6NMtz2CvgedEWECfjp2iNrPCIDygrmsw8c7lpsMDGnUuN7xMLHTDF/k1Fk74OrhkP7MfGlDVwaWELlIP4EadA7p0kRp9wMJOuOxUdLLL200zu+lEmECPbppXmGkbsYQMtOjoO6oxX4YrGnKGYzjkeXNYwmGnysIw3yUNV/H3MEVf1pAwn/AMKRSayG+w8Im0IXNSSxgykDxkjqSXuWtAo84NpYMu0Zshs2udwmQnddguiQO/NUMFcgd+kzh0YHsLHfxQwd1uCQ4+yW5eAjz5Iz8kDz4pdfjSwh3A7+w74QidkuFL5Q6Au4RODFOw7ewkPEGn3QC40TwT+Q3hw41gIdvZv6BTM4Sy3EG4z82u6KFzYOHa2SJBp2gQbtnDuG8KH77qWah2tn6KTs0w7rInAnBuhpaE3X24cIVOz4kARJlV4TktPq4qTLDXAJ2mU0mIBrORYzok4u4GWIjI9qCDTtfJSEQ1w8IdcXQOLDw7O5Mkqo41OQY1sQ/Dkrj7asZCs7OT4QKd6gmRyBVSR3ckEnF3cWSB2dl/o9N5Si3RI8M38zzhyGHZeTenbFI2qqb1Ux3kJLhcxoKyGwN0yqb1I3diSBw9GYlfDxDcCAMQO90nhhTVFMx8yOFzOFAMCUCnbGpRKien1S01dBP/OylmwMBgQKduclpKpzeWWZFxSECCBA78qXNBmN5Y9KLFTnVyQYYrZRQI2HbBmCBbtMzGTiUWdoF8RkS3KdapmKSf/If4A4hAT9IvesA3j0p4EOhpHkZRn28ijGEBF1fYRmKYvhZTzcxvVGIHDQI+1cxomYN0guAg4JMVjd6s8/EAA62mu6rTjIRhgU4TptVnyr3lEg8o0GjKvTpN2riJsECzSRsrI3HxQAL9pv2sR4SXpQGHAIE2E8fWberh7VLLfzigzdTDtZu8ercUORjQZfLqGkx/nm965lBAk+nPazmB/vIWOiCgxwT6NTXBILdWiZ1cWP1grS2GJEGnhwkGuhrx8DFKxWAohAmwVi9Y+27melhEdHoY8aCrGRjnpinXYeXKG3dbG1g7GW59iOicHmZgaGyJk0lvY+aM+GDAT54fWasDrLV/yJEFL6SJISEamaKi3NQb55xv+Hb1uBneX0QvpIspKhoaM8MaR7gi96Lk8O2FzDtBMZ7eJ20q1ceYGd3M4eG5zhY6FdbBqsS2I2wq1ckcHu0MKuI3WEo6wW3LgUC6tTKoKBAmORU25lRI0duSEAiTnAJi1FW3riAPBWDpCIJRV4ExC6xd0ro4PZAL12Ac6EMHBsAssAAZltbSxa494nfj6erZaDjbm8qG++hgNiwtig61Nt2ObuU5Ov1Nk4Pa+D/aBBCCYNxe0Fx7DWNYzSMMooGNplnBnxcMbIyieSPC9fOBiZZRdLcqwgUKW70cWCM/o+g/LV6uv1dKRADNRA2yobHnZicpIMJnaGzQTdU1f04k4JmqG3hjh89Nt4elAGDGDoNgLrPJrtURoTKX+eEbGAyuPjfVZiKByuBqSEz27g5LMJnsDYzR5/kbPYCMPgfHbHiTX9uFxmx4eAzPPzdmkwg4IAzPD/zSBQgwpCREDPulC4iiV8tGKPB6eEuFYA/64hcAt3wK7WYdMQ728ikAuAAPxi5VAr0ADxAu4cS5MaM7mmU9l3AikchYwglAFwHDFDbS2+okwQVrETDgWUYOUcKdgzL6TgVlGTlgWogQYUJ3OiXF3qlgLEQI3EtZUt0csezGgVjKEuAXQ8XcOUlJdfYisWi2GCrwLaeLHNZWfm16dohLcOjfYq2W0yVcFmSmtdM4SVuWdgeF/Qr/gsxsyl+QmdBa0hszesfrO/kNLZb0JsQWhedck0Xh+blnWYF+7lmYop97ljbp553Fcfq5Z3mlwmCBrmoeQU9KbT48FjHrUM8l3jpc+Xl5kcBgUValRdJlmcnqsz/nLFTazzlL3fbzzWLJ/Tyw3Hb5O0Ffbrsp6nLb/UbEFgE=;fontStyle=0" parent="1" vertex="1">
          <mxGeometry x="-2510" y="-27.120000000000005" width="99.93" height="100.62" as="geometry" />
        </mxCell>
        <mxCell id="wwGiFJIhEPc0UXbHz_NO-32" value="" style="edgeStyle=orthogonalEdgeStyle;rounded=0;orthogonalLoop=1;jettySize=auto;html=1;entryX=0;entryY=0.5;entryDx=0;entryDy=0;entryPerimeter=0;fontStyle=0" edge="1" parent="1" source="hr_C6YJtpPprGCPxRi_A-6" target="hr_C6YJtpPprGCPxRi_A-7">
          <mxGeometry relative="1" as="geometry">
            <mxPoint x="-1547.1999999999998" y="45.9050000000002" as="targetPoint" />
          </mxGeometry>
        </mxCell>
        <mxCell id="hr_C6YJtpPprGCPxRi_A-6" value="" style="sketch=0;outlineConnect=0;fontColor=#232F3E;gradientColor=none;strokeColor=#ffffff;fillColor=#232F3E;dashed=0;verticalLabelPosition=middle;verticalAlign=bottom;align=center;html=1;whiteSpace=wrap;fontSize=10;fontStyle=0;spacing=3;shape=mxgraph.aws4.productIcon;prIcon=mxgraph.aws4.glue;aspect=fixed;" parent="1" vertex="1">
          <mxGeometry x="-1745.6" y="-10" width="105.6" height="111.81" as="geometry" />
        </mxCell>
        <mxCell id="wwGiFJIhEPc0UXbHz_NO-33" value="" style="edgeStyle=orthogonalEdgeStyle;rounded=0;orthogonalLoop=1;jettySize=auto;html=1;fontStyle=0" edge="1" parent="1" source="hr_C6YJtpPprGCPxRi_A-7" target="hr_C6YJtpPprGCPxRi_A-15">
          <mxGeometry relative="1" as="geometry" />
        </mxCell>
        <mxCell id="wwGiFJIhEPc0UXbHz_NO-68" value="" style="edgeStyle=orthogonalEdgeStyle;rounded=0;orthogonalLoop=1;jettySize=auto;html=1;" edge="1" parent="1" source="hr_C6YJtpPprGCPxRi_A-7">
          <mxGeometry relative="1" as="geometry">
            <mxPoint x="-860" y="47" as="targetPoint" />
          </mxGeometry>
        </mxCell>
        <mxCell id="hr_C6YJtpPprGCPxRi_A-7" value="" style="sketch=0;points=[[0,0,0],[0.25,0,0],[0.5,0,0],[0.75,0,0],[1,0,0],[0,1,0],[0.25,1,0],[0.5,1,0],[0.75,1,0],[1,1,0],[0,0.25,0],[0,0.5,0],[0,0.75,0],[1,0.25,0],[1,0.5,0],[1,0.75,0]];outlineConnect=0;fontColor=#232F3E;fillColor=#7AA116;strokeColor=#ffffff;dashed=0;verticalLabelPosition=bottom;verticalAlign=top;align=center;html=1;fontSize=12;fontStyle=0;aspect=fixed;shape=mxgraph.aws4.resourceIcon;resIcon=mxgraph.aws4.s3;" parent="1" vertex="1">
          <mxGeometry x="-1090" y="-8.18999999999998" width="110" height="110" as="geometry" />
        </mxCell>
        <mxCell id="wwGiFJIhEPc0UXbHz_NO-44" value="" style="edgeStyle=orthogonalEdgeStyle;rounded=0;orthogonalLoop=1;jettySize=auto;html=1;fontStyle=0" edge="1" parent="1" target="hr_C6YJtpPprGCPxRi_A-9">
          <mxGeometry relative="1" as="geometry">
            <mxPoint x="-1685" y="370" as="sourcePoint" />
          </mxGeometry>
        </mxCell>
        <mxCell id="hr_C6YJtpPprGCPxRi_A-9" value="" style="outlineConnect=0;dashed=0;verticalLabelPosition=bottom;verticalAlign=top;align=center;html=1;shape=mxgraph.aws3.cloudwatch;fillColor=#759C3E;gradientColor=none;fontStyle=0" parent="1" vertex="1">
          <mxGeometry x="-1740" y="560" width="110" height="120" as="geometry" />
        </mxCell>
        <mxCell id="wwGiFJIhEPc0UXbHz_NO-50" value="" style="edgeStyle=orthogonalEdgeStyle;rounded=0;orthogonalLoop=1;jettySize=auto;html=1;fontStyle=0" edge="1" parent="1" source="hr_C6YJtpPprGCPxRi_A-12">
          <mxGeometry relative="1" as="geometry">
            <mxPoint x="-1820" y="237" as="targetPoint" />
          </mxGeometry>
        </mxCell>
        <mxCell id="hr_C6YJtpPprGCPxRi_A-12" value="" style="outlineConnect=0;dashed=0;verticalLabelPosition=bottom;verticalAlign=top;align=center;html=1;shape=mxgraph.aws3.athena;fillColor=#F58534;gradientColor=none;fontStyle=0" parent="1" vertex="1">
          <mxGeometry x="-2190" y="182.4" width="100" height="110" as="geometry" />
        </mxCell>
        <mxCell id="wwGiFJIhEPc0UXbHz_NO-35" value="" style="edgeStyle=orthogonalEdgeStyle;rounded=0;orthogonalLoop=1;jettySize=auto;html=1;entryX=0;entryY=0.5;entryDx=0;entryDy=0;entryPerimeter=0;fontStyle=0" edge="1" parent="1" source="hr_C6YJtpPprGCPxRi_A-15" target="wwGiFJIhEPc0UXbHz_NO-18">
          <mxGeometry relative="1" as="geometry">
            <mxPoint x="-1219.6999999999998" y="267" as="targetPoint" />
          </mxGeometry>
        </mxCell>
        <mxCell id="hr_C6YJtpPprGCPxRi_A-15" value="" style="sketch=0;outlineConnect=0;fontColor=#232F3E;gradientColor=none;strokeColor=#ffffff;fillColor=#232F3E;dashed=0;verticalLabelPosition=middle;verticalAlign=bottom;align=center;html=1;whiteSpace=wrap;fontSize=10;fontStyle=0;spacing=3;shape=mxgraph.aws4.productIcon;prIcon=mxgraph.aws4.glue;aspect=fixed;" parent="1" vertex="1">
          <mxGeometry x="-1402.65" y="216.5" width="95.3" height="100.9" as="geometry" />
        </mxCell>
        <mxCell id="wwGiFJIhEPc0UXbHz_NO-30" value="" style="edgeStyle=orthogonalEdgeStyle;rounded=0;orthogonalLoop=1;jettySize=auto;html=1;fontStyle=0" edge="1" parent="1" source="wwGiFJIhEPc0UXbHz_NO-2">
          <mxGeometry relative="1" as="geometry">
            <mxPoint x="-1685" y="-20" as="targetPoint" />
          </mxGeometry>
        </mxCell>
        <mxCell id="wwGiFJIhEPc0UXbHz_NO-2" value="" style="outlineConnect=0;dashed=0;verticalLabelPosition=bottom;verticalAlign=top;align=center;html=1;shape=mxgraph.aws3.lambda_function;fillColor=#F58534;gradientColor=none;fontStyle=0" vertex="1" parent="1">
          <mxGeometry x="-1740" y="-250" width="110" height="103.5" as="geometry" />
        </mxCell>
        <mxCell id="wwGiFJIhEPc0UXbHz_NO-65" value="" style="edgeStyle=orthogonalEdgeStyle;rounded=0;orthogonalLoop=1;jettySize=auto;html=1;" edge="1" parent="1" source="wwGiFJIhEPc0UXbHz_NO-3" target="hr_C6YJtpPprGCPxRi_A-15">
          <mxGeometry relative="1" as="geometry">
            <mxPoint x="-1530" y="271.5999999999999" as="targetPoint" />
            <Array as="points">
              <mxPoint x="-1460" y="272" />
              <mxPoint x="-1460" y="272" />
            </Array>
          </mxGeometry>
        </mxCell>
        <mxCell id="wwGiFJIhEPc0UXbHz_NO-3" value="" style="outlineConnect=0;dashed=0;verticalLabelPosition=bottom;verticalAlign=top;align=center;html=1;shape=mxgraph.aws3.lambda_function;fillColor=#F58534;gradientColor=none;fontStyle=0" vertex="1" parent="1">
          <mxGeometry x="-1740.0000000000002" y="188.89999999999998" width="110" height="103.5" as="geometry" />
        </mxCell>
        <mxCell id="wwGiFJIhEPc0UXbHz_NO-4" value="" style="outlineConnect=0;dashed=0;verticalLabelPosition=bottom;verticalAlign=top;align=center;html=1;shape=mxgraph.aws3.athena;fillColor=#F58534;gradientColor=none;fontStyle=0" vertex="1" parent="1">
          <mxGeometry x="-550" y="207.4" width="100" height="110" as="geometry" />
        </mxCell>
        <mxCell id="wwGiFJIhEPc0UXbHz_NO-48" value="" style="edgeStyle=orthogonalEdgeStyle;rounded=0;orthogonalLoop=1;jettySize=auto;html=1;entryX=0.004;entryY=0.193;entryDx=0;entryDy=0;entryPerimeter=0;fontStyle=0" edge="1" parent="1" source="wwGiFJIhEPc0UXbHz_NO-6" target="wwGiFJIhEPc0UXbHz_NO-40">
          <mxGeometry relative="1" as="geometry">
            <mxPoint x="-2000" y="-215" as="targetPoint" />
          </mxGeometry>
        </mxCell>
        <mxCell id="wwGiFJIhEPc0UXbHz_NO-6" value="" style="outlineConnect=0;dashed=0;verticalLabelPosition=bottom;verticalAlign=top;align=center;html=1;shape=mxgraph.aws3.athena;fillColor=#F58534;gradientColor=none;fontStyle=0" vertex="1" parent="1">
          <mxGeometry x="-2190" y="-270" width="100" height="110" as="geometry" />
        </mxCell>
        <mxCell id="wwGiFJIhEPc0UXbHz_NO-7" value="" style="outlineConnect=0;dashed=0;verticalLabelPosition=bottom;verticalAlign=top;align=center;html=1;shape=mxgraph.aws3.certificate_manager;fillColor=#759C3E;gradientColor=none;fontStyle=0" vertex="1" parent="1">
          <mxGeometry x="-2501.04" y="197.39999999999998" width="82" height="80" as="geometry" />
        </mxCell>
        <mxCell id="wwGiFJIhEPc0UXbHz_NO-24" value="" style="edgeStyle=orthogonalEdgeStyle;rounded=0;orthogonalLoop=1;jettySize=auto;html=1;fontStyle=0" edge="1" parent="1" source="wwGiFJIhEPc0UXbHz_NO-8">
          <mxGeometry relative="1" as="geometry">
            <mxPoint x="-1701" y="-260" as="targetPoint" />
          </mxGeometry>
        </mxCell>
        <mxCell id="wwGiFJIhEPc0UXbHz_NO-8" value="" style="sketch=0;outlineConnect=0;fontColor=#232F3E;gradientColor=none;fillColor=#E7157B;strokeColor=none;dashed=0;verticalLabelPosition=bottom;verticalAlign=top;align=center;html=1;fontSize=12;fontStyle=0;aspect=fixed;pointerEvents=1;shape=mxgraph.aws4.event_time_based;" vertex="1" parent="1">
          <mxGeometry x="-1740" y="-590" width="78" height="78" as="geometry" />
        </mxCell>
        <mxCell id="wwGiFJIhEPc0UXbHz_NO-46" value="" style="edgeStyle=orthogonalEdgeStyle;rounded=0;orthogonalLoop=1;jettySize=auto;html=1;fontStyle=0" edge="1" parent="1" target="wwGiFJIhEPc0UXbHz_NO-10">
          <mxGeometry relative="1" as="geometry">
            <mxPoint x="-1355" y="370" as="sourcePoint" />
          </mxGeometry>
        </mxCell>
        <mxCell id="wwGiFJIhEPc0UXbHz_NO-10" value="" style="outlineConnect=0;dashed=0;verticalLabelPosition=bottom;verticalAlign=top;align=center;html=1;shape=mxgraph.aws3.sns;fillColor=#D9A741;gradientColor=none;fontStyle=0" vertex="1" parent="1">
          <mxGeometry x="-1410" y="570" width="110" height="100" as="geometry" />
        </mxCell>
        <mxCell id="wwGiFJIhEPc0UXbHz_NO-37" value="" style="edgeStyle=orthogonalEdgeStyle;rounded=0;orthogonalLoop=1;jettySize=auto;html=1;fontStyle=0" edge="1" parent="1" source="wwGiFJIhEPc0UXbHz_NO-18" target="wwGiFJIhEPc0UXbHz_NO-19">
          <mxGeometry relative="1" as="geometry">
            <mxPoint x="-885" y="268.25" as="targetPoint" />
          </mxGeometry>
        </mxCell>
        <mxCell id="wwGiFJIhEPc0UXbHz_NO-18" value="" style="sketch=0;points=[[0,0,0],[0.25,0,0],[0.5,0,0],[0.75,0,0],[1,0,0],[0,1,0],[0.25,1,0],[0.5,1,0],[0.75,1,0],[1,1,0],[0,0.25,0],[0,0.5,0],[0,0.75,0],[1,0.25,0],[1,0.5,0],[1,0.75,0]];outlineConnect=0;fontColor=#232F3E;fillColor=#7AA116;strokeColor=#ffffff;dashed=0;verticalLabelPosition=bottom;verticalAlign=top;align=center;html=1;fontSize=12;fontStyle=0;aspect=fixed;shape=mxgraph.aws4.resourceIcon;resIcon=mxgraph.aws4.s3;" vertex="1" parent="1">
          <mxGeometry x="-1090" y="213.25000000000003" width="110" height="110" as="geometry" />
        </mxCell>
        <mxCell id="wwGiFJIhEPc0UXbHz_NO-39" value="" style="edgeStyle=orthogonalEdgeStyle;rounded=0;orthogonalLoop=1;jettySize=auto;html=1;fontStyle=0" edge="1" parent="1" source="wwGiFJIhEPc0UXbHz_NO-19">
          <mxGeometry relative="1" as="geometry">
            <mxPoint x="-560" y="268" as="targetPoint" />
          </mxGeometry>
        </mxCell>
        <mxCell id="wwGiFJIhEPc0UXbHz_NO-19" value="" style="sketch=0;outlineConnect=0;fontColor=#232F3E;gradientColor=none;fillColor=#8C4FFF;strokeColor=none;dashed=0;verticalLabelPosition=bottom;verticalAlign=top;align=center;html=1;fontSize=12;fontStyle=0;aspect=fixed;pointerEvents=1;shape=mxgraph.aws4.glue_crawlers;" vertex="1" parent="1">
          <mxGeometry x="-810" y="216.5" width="103.5" height="103.5" as="geometry" />
        </mxCell>
        <mxCell id="wwGiFJIhEPc0UXbHz_NO-51" value="&lt;font style=&quot;font-size: 18px;&quot;&gt;Cloud Watch Event Trigger&lt;/font&gt;" style="text;strokeColor=none;align=center;fillColor=none;html=1;verticalAlign=middle;whiteSpace=wrap;rounded=0;fontStyle=0" vertex="1" parent="1">
          <mxGeometry x="-1752.8" y="-490" width="120" height="30" as="geometry" />
        </mxCell>
        <mxCell id="wwGiFJIhEPc0UXbHz_NO-52" value="&lt;span&gt;&lt;font style=&quot;font-size: 18px;&quot;&gt;&lt;b&gt;Lambda&amp;nbsp;&lt;/b&gt;&lt;/font&gt;&lt;/span&gt;&lt;div&gt;&lt;span&gt;&lt;font size=&quot;3&quot;&gt;&lt;b&gt;Gets Process ID&lt;/b&gt;&lt;/font&gt;&lt;/span&gt;&lt;/div&gt;" style="text;strokeColor=none;align=center;fillColor=none;html=1;verticalAlign=middle;whiteSpace=wrap;rounded=0;fontStyle=0" vertex="1" parent="1">
          <mxGeometry x="-1750" y="-130" width="140" height="30" as="geometry" />
        </mxCell>
        <mxCell id="wwGiFJIhEPc0UXbHz_NO-54" value="&lt;font style=&quot;font-size: 18px;&quot;&gt;&lt;span&gt;&lt;b&gt;Job Config Table&lt;/b&gt;&lt;/span&gt;&lt;/font&gt;" style="text;strokeColor=none;align=center;fillColor=none;html=1;verticalAlign=middle;whiteSpace=wrap;rounded=0;fontStyle=0" vertex="1" parent="1">
          <mxGeometry x="-2205" y="-146.5" width="160" height="30" as="geometry" />
        </mxCell>
        <mxCell id="wwGiFJIhEPc0UXbHz_NO-55" value="&lt;span&gt;&lt;font style=&quot;font-size: 18px;&quot;&gt;&lt;b&gt;Audit Log Table&lt;/b&gt;&lt;/font&gt;&lt;/span&gt;" style="text;strokeColor=none;align=center;fillColor=none;html=1;verticalAlign=middle;whiteSpace=wrap;rounded=0;fontStyle=0" vertex="1" parent="1">
          <mxGeometry x="-2200" y="317.4" width="150" height="30" as="geometry" />
        </mxCell>
        <mxCell id="wwGiFJIhEPc0UXbHz_NO-56" value="&lt;b&gt;&lt;font style=&quot;font-size: 18px;&quot;&gt;Secret Manager To store credentials&lt;/font&gt;&lt;/b&gt;" style="text;strokeColor=none;align=center;fillColor=none;html=1;verticalAlign=middle;whiteSpace=wrap;rounded=0;fontStyle=0" vertex="1" parent="1">
          <mxGeometry x="-2530.03" y="310" width="180.03" height="30" as="geometry" />
        </mxCell>
        <mxCell id="wwGiFJIhEPc0UXbHz_NO-57" value="&lt;b&gt;&lt;font style=&quot;font-size: 18px;&quot;&gt;Ingestion Job&lt;/font&gt;&lt;/b&gt;" style="text;strokeColor=none;align=center;fillColor=none;html=1;verticalAlign=middle;whiteSpace=wrap;rounded=0;" vertex="1" parent="1">
          <mxGeometry x="-1752.8" y="101.81" width="140" height="30" as="geometry" />
        </mxCell>
        <mxCell id="wwGiFJIhEPc0UXbHz_NO-58" value="&lt;b&gt;&lt;font style=&quot;font-size: 18px;&quot;&gt;Target S3 Bucket&lt;/font&gt;&lt;/b&gt;" style="text;strokeColor=none;align=center;fillColor=none;html=1;verticalAlign=middle;whiteSpace=wrap;rounded=0;" vertex="1" parent="1">
          <mxGeometry x="-1100" y="340" width="140" height="30" as="geometry" />
        </mxCell>
        <mxCell id="wwGiFJIhEPc0UXbHz_NO-60" value="&lt;font style=&quot;font-size: 18px;&quot;&gt;&lt;b&gt;Target Athena Tables&lt;/b&gt;&lt;/font&gt;" style="text;strokeColor=none;align=center;fillColor=none;html=1;verticalAlign=middle;whiteSpace=wrap;rounded=0;" vertex="1" parent="1">
          <mxGeometry x="-580" y="340" width="190" height="30" as="geometry" />
        </mxCell>
        <mxCell id="wwGiFJIhEPc0UXbHz_NO-66" value="" style="verticalLabelPosition=bottom;html=1;verticalAlign=top;align=center;strokeColor=none;fillColor=#00BEF2;shape=mxgraph.azure.cloud_services_configuration_file;pointerEvents=1;" vertex="1" parent="1">
          <mxGeometry x="-850" width="90" height="100" as="geometry" />
        </mxCell>
        <mxCell id="wwGiFJIhEPc0UXbHz_NO-69" value="&lt;b&gt;&lt;font style=&quot;font-size: 18px;&quot;&gt;JOB_ID DONE FILE&lt;/font&gt;&lt;/b&gt;" style="text;strokeColor=none;align=center;fillColor=none;html=1;verticalAlign=middle;whiteSpace=wrap;rounded=0;" vertex="1" parent="1">
          <mxGeometry x="-910" y="110" width="220" height="30" as="geometry" />
        </mxCell>
        <mxCell id="wwGiFJIhEPc0UXbHz_NO-70" value="&lt;b&gt;&lt;font style=&quot;font-size: 18px;&quot;&gt;CRAWLER&lt;/font&gt;&lt;/b&gt;&lt;div&gt;&lt;b&gt;&lt;font size=&quot;3&quot;&gt;Updating Tables&lt;/font&gt;&lt;/b&gt;&lt;/div&gt;" style="text;strokeColor=none;align=center;fillColor=none;html=1;verticalAlign=middle;whiteSpace=wrap;rounded=0;" vertex="1" parent="1">
          <mxGeometry x="-830" y="347.4" width="140" height="30" as="geometry" />
        </mxCell>
        <mxCell id="wwGiFJIhEPc0UXbHz_NO-72" value="&lt;b&gt;&lt;font style=&quot;font-size: 18px;&quot;&gt;SNS&lt;/font&gt;&lt;/b&gt;&lt;div&gt;&lt;b&gt;&lt;font size=&quot;3&quot;&gt;To send Failure Notifications&lt;/font&gt;&lt;/b&gt;&lt;/div&gt;" style="text;strokeColor=none;align=center;fillColor=none;html=1;verticalAlign=middle;whiteSpace=wrap;rounded=0;" vertex="1" parent="1">
          <mxGeometry x="-1480" y="690" width="250" height="30" as="geometry" />
        </mxCell>
        <mxCell id="wwGiFJIhEPc0UXbHz_NO-73" value="&lt;b&gt;&lt;font style=&quot;font-size: 18px;&quot;&gt;Cloud Watch Logs&lt;/font&gt;&lt;/b&gt;" style="text;strokeColor=none;align=center;fillColor=none;html=1;verticalAlign=middle;whiteSpace=wrap;rounded=0;" vertex="1" parent="1">
          <mxGeometry x="-1787.8" y="700" width="215.6" height="30" as="geometry" />
        </mxCell>
        <mxCell id="wwGiFJIhEPc0UXbHz_NO-75" value="&lt;font style=&quot;font-size: 18px;&quot;&gt;&lt;b style=&quot;&quot;&gt;Lambda&lt;/b&gt;&lt;/font&gt;&lt;div&gt;&lt;font size=&quot;3&quot;&gt;&lt;b&gt;Gets Job ID&lt;/b&gt;&lt;/font&gt;&lt;/div&gt;" style="text;strokeColor=none;align=center;fillColor=none;html=1;verticalAlign=middle;whiteSpace=wrap;rounded=0;" vertex="1" parent="1">
          <mxGeometry x="-1745" y="310" width="130" height="30" as="geometry" />
        </mxCell>
        <mxCell id="wwGiFJIhEPc0UXbHz_NO-76" value="&lt;b&gt;&lt;font style=&quot;font-size: 18px;&quot;&gt;Final ET:L Job&lt;/font&gt;&lt;/b&gt;" style="text;strokeColor=none;align=center;fillColor=none;html=1;verticalAlign=middle;whiteSpace=wrap;rounded=0;" vertex="1" parent="1">
          <mxGeometry x="-1430" y="320" width="150" height="30" as="geometry" />
        </mxCell>
        <mxCell id="wwGiFJIhEPc0UXbHz_NO-78" value="&lt;font style=&quot;font-size: 18px;&quot;&gt;&lt;b&gt;Adobe Analytics&lt;/b&gt;&lt;/font&gt;" style="text;strokeColor=none;align=center;fillColor=none;html=1;verticalAlign=middle;whiteSpace=wrap;rounded=0;" vertex="1" parent="1">
          <mxGeometry x="-2540" y="90" width="180.03" height="30" as="geometry" />
        </mxCell>
        <mxCell id="wwGiFJIhEPc0UXbHz_NO-79" value="&lt;b&gt;&lt;font style=&quot;font-size: 18px;&quot;&gt;S3 Bucket&lt;/font&gt;&lt;/b&gt;" style="text;strokeColor=none;align=center;fillColor=none;html=1;verticalAlign=middle;whiteSpace=wrap;rounded=0;" vertex="1" parent="1">
          <mxGeometry x="-1090" y="110" width="110" height="30" as="geometry" />
        </mxCell>
        <mxCell id="wwGiFJIhEPc0UXbHz_NO-80" value="AWS Cloud" style="points=[[0,0],[0.25,0],[0.5,0],[0.75,0],[1,0],[1,0.25],[1,0.5],[1,0.75],[1,1],[0.75,1],[0.5,1],[0.25,1],[0,1],[0,0.75],[0,0.5],[0,0.25]];outlineConnect=0;gradientColor=none;html=1;whiteSpace=wrap;fontSize=12;fontStyle=0;container=1;pointerEvents=0;collapsible=0;recursiveResize=0;shape=mxgraph.aws4.group;grIcon=mxgraph.aws4.group_aws_cloud_alt;strokeColor=#232F3E;fillColor=none;verticalAlign=top;align=left;spacingLeft=30;fontColor=#232F3E;dashed=0;" vertex="1" parent="1">
          <mxGeometry x="-2650" y="-680" width="2460" height="1490" as="geometry" />
        </mxCell>
      </root>
    </mxGraphModel>
  </diagram>
</mxfile>
